<svg xmlns="http://www.w3.org/2000/svg" viewBox="0 0 512 512" width="512" height="512">
  <rect width="512" height="512" rx="80" fill="#0b1020"/>
  <rect x="20" y="20" width="472" height="472" rx="68" fill="#141b2f" stroke="#8ee66f" stroke-width="4"/>
  <!-- Oscilloscope grid -->
  <line x1="256" y1="60" x2="256" y2="452" stroke="rgba(142,230,111,0.3)" stroke-width="2"/>
  <line x1="60" y1="256" x2="452" y2="256" stroke="rgba(142,230,111,0.3)" stroke-width="2"/>
  <line x1="60" y1="158" x2="452" y2="158" stroke="rgba(255,255,255,0.08)" stroke-width="1"/>
  <line x1="60" y1="354" x2="452" y2="354" stroke="rgba(255,255,255,0.08)" stroke-width="1"/>
  <line x1="158" y1="60" x2="158" y2="452" stroke="rgba(255,255,255,0.08)" stroke-width="1"/>
  <line x1="354" y1="60" x2="354" y2="452" stroke="rgba(255,255,255,0.08)" stroke-width="1"/>
  <!-- Sine wave trace A (cyan) -->
  <path d="M60,256 C100,160 140,80 180,160 C220,240 260,336 300,256 C340,176 380,96 452,176" fill="none" stroke="#41d7ff" stroke-width="6" stroke-linecap="round"/>
  <!-- Sawtooth trace B (amber) -->
  <path d="M60,210 L160,320 L160,180 L260,295 L260,155 L360,270 L360,130 L452,245" fill="none" stroke="#ffbe3d" stroke-width="4" stroke-linecap="round" stroke-linejoin="round"/>
</svg>
